<svg viewBox="0 0 550 126" version="1.1" xmlns="http://www.w3.org/2000/svg" xmlns:xlink="http://www.w3.org/1999/xlink">
    
    <g id="Page-1" stroke="none" stroke-width="1" fill-rule="evenodd" sketch:type="MSPage">
        <g id="logo-purple" sketch:type="MSLayerGroup" stroke-width="2.5">
            <g id="Group" sketch:type="MSShapeGroup">
                <path d="M283.525,48.637 L328.595,48.637 L308.321,0.686 L312.285,0.686 L348.679,85.127 L344.159,85.127 L329.903,52.494 L281.987,52.494 L283.525,48.637 L283.525,48.637 Z" id="Shape"></path>
                <path d="M371.629,7.733 L371.629,84.937 L367.582,84.937 L367.582,0.447 L370.676,0.447 L435.629,78.96 L435.629,0.566 L439.676,0.566 L439.676,84.937 L435.629,84.937 L371.629,7.733 L371.629,7.733 Z" id="Shape"></path>
                <path d="M502.916,85.533 C496.578,85.533 490.82,84.303 485.641,81.844 C480.457,79.385 475.983,76.172 472.215,72.205 C468.445,68.238 465.535,63.678 463.481,58.519 C461.426,53.363 460.397,48.087 460.397,42.692 C460.397,37.06 461.491,31.666 463.674,26.507 C465.858,21.352 468.854,16.79 472.666,12.823 C476.475,8.856 480.971,5.703 486.154,3.362 C491.334,1.022 496.963,-0.149 503.045,-0.149 C509.297,-0.149 515.035,1.1 520.258,3.6 C525.483,6.098 529.957,9.371 533.684,13.416 C537.409,17.463 540.299,22.044 542.354,27.161 C544.409,32.277 545.438,37.455 545.438,42.69 C545.438,48.402 544.344,53.837 542.161,58.994 C539.977,64.151 536.979,68.691 533.169,72.619 C529.358,76.546 524.862,79.681 519.683,82.019 C514.498,84.363 508.91,85.533 502.916,85.533 L502.916,85.533 Z M464.365,42.692 C464.365,47.77 465.316,52.649 467.22,57.33 C469.122,62.012 471.784,66.156 475.202,69.766 C478.62,73.376 482.686,76.25 487.403,78.393 C492.12,80.536 497.29,81.606 502.915,81.606 C508.712,81.606 513.97,80.475 518.686,78.214 C523.402,75.953 527.45,72.998 530.823,69.349 C534.198,65.701 536.815,61.536 538.677,56.854 C540.536,52.174 541.468,47.454 541.468,42.693 C541.468,37.617 540.493,32.738 538.548,28.056 C536.601,23.375 533.894,19.231 530.435,15.62 C526.972,12.011 522.906,9.135 518.234,6.992 C513.56,4.85 508.453,3.779 502.916,3.779 C497.119,3.779 491.861,4.91 487.146,7.171 C482.429,9.432 478.384,12.389 475.009,16.037 C471.634,19.686 469.015,23.831 467.155,28.473 C465.295,33.113 464.365,37.854 464.365,42.692 L464.365,42.692 Z" id="Shape"></path>
                <path d="M80.48,84.938 L80.48,7.972 L43.765,68.516 L41.028,68.516 L-0.162,0.447 L4.076,0.448 L42.456,63.967 L80.719,0.448 L84.527,0.448 L84.527,84.938 L80.48,84.938 L80.48,84.938 Z" id="Shape"></path>
                <path d="M147.609,81.605 C153.636,81.605 158.655,80.474 162.662,78.213 C166.668,75.952 169.82,72.997 172.123,69.348 C174.423,65.7 176.05,61.554 177.002,56.912 C177.953,52.27 178.43,47.57 178.43,42.81 L178.43,0.447 L182.595,0.447 L182.595,42.811 C182.595,48.445 182,53.839 180.81,58.996 C179.62,64.153 177.657,68.693 174.92,72.621 C172.182,76.548 168.592,79.683 164.15,82.021 C159.706,84.363 154.232,85.533 147.728,85.533 C141.064,85.533 135.489,84.303 131.007,81.844 C126.525,79.385 122.935,76.153 120.237,72.145 C117.54,68.141 115.635,63.578 114.526,58.46 C113.414,53.343 112.86,48.127 112.86,42.812 L112.86,0.447 L116.905,0.447 L116.905,42.811 C116.905,47.731 117.382,52.509 118.334,57.15 C119.286,61.792 120.952,65.918 123.332,69.527 C125.712,73.137 128.865,76.052 132.792,78.273 C136.72,80.496 141.658,81.605 147.609,81.605 L147.609,81.605 Z" id="Shape"></path>
                <path d="M263.728,26.211 C262.062,21.094 259.582,16.631 256.29,12.824 C252.997,9.015 248.852,6.002 243.854,3.779 C238.856,1.559 233.024,0.447 226.36,0.447 L203.617,0.447 L203.617,4.256 L226.36,4.256 C232.073,4.256 237.169,5.207 241.652,7.111 C246.133,9.015 249.881,11.673 252.897,15.084 C255.912,18.496 258.211,22.543 259.799,27.223 C261.385,31.905 262.18,37.022 262.18,42.575 C262.18,48.048 261.424,53.147 259.918,57.866 C258.41,62.587 256.148,66.672 253.135,70.123 C250.119,73.574 246.371,76.272 241.89,78.215 C237.407,80.159 232.231,81.13 226.36,81.13 L203.617,81.13 L203.617,84.939 L226.36,84.939 C232.469,84.939 237.981,83.927 242.901,81.904 C247.819,79.882 252.005,77.025 255.456,73.337 C258.907,69.649 261.564,65.206 263.43,60.009 C265.292,54.815 266.226,49.002 266.226,42.576 C266.226,36.783 265.394,31.328 263.728,26.211 L263.728,26.211 Z" id="Shape"></path>
            </g>
        </g>
        <path d="M18.992,116.408 C18.992,117.696006 18.788002,118.867995 18.38,119.924 C17.971998,120.980005 17.3960037,121.883996 16.652,122.636 C15.9079963,123.388004 15.0160052,123.969998 13.976,124.382 C12.9359948,124.794002 11.7840063,125 10.52,125 L4.088,125 L4.088,107.804 L10.52,107.804 C11.7840063,107.804 12.9359948,108.009998 13.976,108.422 C15.0160052,108.834002 15.9079963,109.417996 16.652,110.174 C17.3960037,110.930004 17.971998,111.835995 18.38,112.892 C18.788002,113.948005 18.992,115.119994 18.992,116.408 L18.992,116.408 Z M16.604,116.408 C16.604,115.351995 16.4600014,114.408004 16.172,113.576 C15.8839986,112.743996 15.4760026,112.040003 14.948,111.464 C14.4199974,110.887997 13.7800038,110.448002 13.028,110.144 C12.2759962,109.839998 11.4400046,109.688 10.52,109.688 L6.428,109.688 L6.428,123.116 L10.52,123.116 C11.4400046,123.116 12.2759962,122.964002 13.028,122.66 C13.7800038,122.355998 14.4199974,121.918003 14.948,121.346 C15.4760026,120.773997 15.8839986,120.072004 16.172,119.24 C16.4600014,118.407996 16.604,117.464005 16.604,116.408 L16.604,116.408 Z M39.2325715,125 L37.4325715,125 C37.2245704,125 37.0565721,124.948001 36.9285715,124.844 C36.8005708,124.739999 36.7045718,124.608001 36.6405715,124.448 L35.0325715,120.296 L27.3165715,120.296 L25.7085715,124.448 C25.6525712,124.592001 25.5565721,124.719999 25.4205715,124.832 C25.2845708,124.944001 25.1165725,125 24.9165715,125 L23.1165715,125 L29.9925715,107.804 L32.3565715,107.804 L39.2325715,125 Z M27.9645715,118.616 L34.3845715,118.616 L31.6845715,111.62 C31.5085706,111.187998 31.3365723,110.648003 31.1685715,110 C31.080571,110.328002 30.9945719,110.629999 30.9105715,110.906 C30.826571,111.182001 30.7445719,111.423999 30.6645715,111.632 L27.9645715,118.616 Z M54.9611429,107.804 L54.9611429,109.76 L49.4051429,109.76 L49.4051429,125 L47.0771429,125 L47.0771429,109.76 L41.4971429,109.76 L41.4971429,107.804 L54.9611429,107.804 Z M73.4017144,125 L71.6017144,125 C71.3937133,125 71.225715,124.948001 71.0977144,124.844 C70.9697137,124.739999 70.8737147,124.608001 70.8097144,124.448 L69.2017144,120.296 L61.4857144,120.296 L59.8777144,124.448 C59.8217141,124.592001 59.7257151,124.719999 59.5897144,124.832 C59.4537137,124.944001 59.2857154,125 59.0857144,125 L57.2857144,125 L64.1617144,107.804 L66.5257144,107.804 L73.4017144,125 Z M62.1337144,118.616 L68.5537144,118.616 L65.8537144,111.62 C65.6777135,111.187998 65.5057152,110.648003 65.3377144,110 C65.2497139,110.328002 65.1637148,110.629999 65.0797144,110.906 C64.995714,111.182001 64.9137148,111.423999 64.8337144,111.632 L62.1337144,118.616 Z M101.966857,116.408 C101.966857,117.696006 101.762859,118.867995 101.354857,119.924 C100.946855,120.980005 100.370861,121.883996 99.6268573,122.636 C98.8828536,123.388004 97.9908625,123.969998 96.9508573,124.382 C95.9108521,124.794002 94.7588636,125 93.4948573,125 L87.0628573,125 L87.0628573,107.804 L93.4948573,107.804 C94.7588636,107.804 95.9108521,108.009998 96.9508573,108.422 C97.9908625,108.834002 98.8828536,109.417996 99.6268573,110.174 C100.370861,110.930004 100.946855,111.835995 101.354857,112.892 C101.762859,113.948005 101.966857,115.119994 101.966857,116.408 L101.966857,116.408 Z M99.5788573,116.408 C99.5788573,115.351995 99.4348588,114.408004 99.1468573,113.576 C98.8588559,112.743996 98.45086,112.040003 97.9228573,111.464 C97.3948547,110.887997 96.7548611,110.448002 96.0028573,110.144 C95.2508536,109.839998 94.4148619,109.688 93.4948573,109.688 L89.4028573,109.688 L89.4028573,123.116 L93.4948573,123.116 C94.4148619,123.116 95.2508536,122.964002 96.0028573,122.66 C96.7548611,122.355998 97.3948547,121.918003 97.9228573,121.346 C98.45086,120.773997 98.8588559,120.072004 99.1468573,119.24 C99.4348588,118.407996 99.5788573,117.464005 99.5788573,116.408 L99.5788573,116.408 Z M111.119429,117.824 L111.119429,125 L108.803429,125 L108.803429,107.804 L113.663429,107.804 C114.751434,107.804 115.691425,107.913999 116.483429,108.134 C117.275433,108.354001 117.929426,108.671998 118.445429,109.088 C118.961431,109.504002 119.343428,110.005997 119.591429,110.594 C119.83943,111.182003 119.963429,111.839996 119.963429,112.568 C119.963429,113.176003 119.86743,113.743997 119.675429,114.272 C119.483428,114.800003 119.205431,115.273998 118.841429,115.694 C118.477427,116.114002 118.033431,116.471999 117.509429,116.768 C116.985426,117.064001 116.391432,117.287999 115.727429,117.44 C116.01543,117.608001 116.271428,117.851998 116.495429,118.172 L121.511429,125 L119.447429,125 C119.023427,125 118.71143,124.836002 118.511429,124.508 L114.047429,118.364 C113.911428,118.171999 113.76343,118.034 113.603429,117.95 C113.443428,117.866 113.20343,117.824 112.883429,117.824 L111.119429,117.824 Z M111.119429,116.132 L113.555429,116.132 C114.235432,116.132 114.833426,116.050001 115.349429,115.886 C115.865431,115.721999 116.297427,115.490002 116.645429,115.19 C116.993431,114.889999 117.255428,114.532002 117.431429,114.116 C117.60743,113.699998 117.695429,113.240003 117.695429,112.736 C117.695429,111.711995 117.357432,110.940003 116.681429,110.42 C116.005425,109.899997 114.999435,109.64 113.663429,109.64 L111.119429,109.64 L111.119429,116.132 Z M130.208,125 L127.88,125 L127.88,107.804 L130.208,107.804 L130.208,125 Z M136.252572,107.804 L138.112572,107.804 C138.320573,107.804 138.488571,107.855999 138.616572,107.96 C138.744572,108.064001 138.840571,108.195999 138.904572,108.356 L143.764572,120.488 C143.876572,120.760001 143.978571,121.055998 144.070572,121.376 C144.162572,121.696002 144.252571,122.027998 144.340572,122.372 C144.412572,122.027998 144.490571,121.696002 144.574572,121.376 C144.658572,121.055998 144.756571,120.760001 144.868572,120.488 L149.704572,108.356 C149.760572,108.219999 149.856571,108.094001 149.992572,107.978 C150.128572,107.861999 150.296571,107.804 150.496572,107.804 L152.368572,107.804 L145.360572,125 L143.260572,125 L136.252572,107.804 Z M168.589143,107.804 L168.589143,109.7 L160.333143,109.7 L160.333143,115.412 L167.017143,115.412 L167.017143,117.236 L160.333143,117.236 L160.333143,123.104 L168.589143,123.104 L168.589143,125 L157.993143,125 L157.993143,107.804 L168.589143,107.804 Z M176.565715,107.804 C176.773716,107.804 176.927714,107.83 177.027715,107.882 C177.127715,107.934 177.241714,108.039999 177.369715,108.2 L187.329715,121.16 C187.305715,120.951999 187.289715,120.750001 187.281715,120.554 C187.273715,120.357999 187.269715,120.168001 187.269715,119.984 L187.269715,107.804 L189.309715,107.804 L189.309715,125 L188.133715,125 C187.949714,125 187.795715,124.968 187.671715,124.904 C187.547714,124.84 187.425715,124.732001 187.305715,124.58 L177.357715,111.632 C177.373715,111.832001 177.385715,112.027999 177.393715,112.22 C177.401715,112.412001 177.405715,112.587999 177.405715,112.748 L177.405715,125 L175.365715,125 L175.365715,107.804 L176.565715,107.804 Z M207.554858,118.568 L207.554858,125 L205.238858,125 L205.238858,107.804 L210.314858,107.804 C211.402863,107.804 212.348854,107.929999 213.152858,108.182 C213.956862,108.434001 214.622855,108.791998 215.150858,109.256 C215.67886,109.720002 216.072856,110.279997 216.332858,110.936 C216.592859,111.592003 216.722858,112.323996 216.722858,113.132 C216.722858,113.932004 216.582859,114.663997 216.302858,115.328 C216.022856,115.992003 215.61286,116.563998 215.072858,117.044 C214.532855,117.524002 213.862862,117.897999 213.062858,118.166 C212.262854,118.434001 211.346863,118.568 210.314858,118.568 L207.554858,118.568 Z M207.554858,116.72 L210.314858,116.72 C210.978861,116.72 211.564855,116.632001 212.072858,116.456 C212.58086,116.279999 213.006856,116.034002 213.350858,115.718 C213.694859,115.401998 213.954857,115.024002 214.130858,114.584 C214.306858,114.143998 214.394858,113.660003 214.394858,113.132 C214.394858,112.035995 214.056861,111.180003 213.380858,110.564 C212.704854,109.947997 211.682864,109.64 210.314858,109.64 L207.554858,109.64 L207.554858,116.72 Z M225.647429,117.824 L225.647429,125 L223.331429,125 L223.331429,107.804 L228.191429,107.804 C229.279434,107.804 230.219425,107.913999 231.011429,108.134 C231.803433,108.354001 232.457426,108.671998 232.973429,109.088 C233.489432,109.504002 233.871428,110.005997 234.119429,110.594 C234.36743,111.182003 234.491429,111.839996 234.491429,112.568 C234.491429,113.176003 234.39543,113.743997 234.203429,114.272 C234.011428,114.800003 233.733431,115.273998 233.369429,115.694 C233.005427,116.114002 232.561432,116.471999 232.037429,116.768 C231.513426,117.064001 230.919432,117.287999 230.255429,117.44 C230.54343,117.608001 230.799428,117.851998 231.023429,118.172 L236.039429,125 L233.975429,125 C233.551427,125 233.23943,124.836002 233.039429,124.508 L228.575429,118.364 C228.439428,118.171999 228.29143,118.034 228.131429,117.95 C227.971428,117.866 227.731431,117.824 227.411429,117.824 L225.647429,117.824 Z M225.647429,116.132 L228.083429,116.132 C228.763432,116.132 229.361426,116.050001 229.877429,115.886 C230.393432,115.721999 230.825427,115.490002 231.173429,115.19 C231.521431,114.889999 231.783428,114.532002 231.959429,114.116 C232.13543,113.699998 232.223429,113.240003 232.223429,112.736 C232.223429,111.711995 231.885432,110.940003 231.209429,110.42 C230.533426,109.899997 229.527436,109.64 228.191429,109.64 L225.647429,109.64 L225.647429,116.132 Z M257.396,116.408 C257.396,117.696006 257.192003,118.877995 256.784,119.954 C256.375998,121.030005 255.800004,121.955996 255.056,122.732 C254.311997,123.508004 253.418006,124.109998 252.374,124.538 C251.329995,124.966002 250.176007,125.18 248.912,125.18 C247.647994,125.18 246.496006,124.966002 245.456,124.538 C244.415995,124.109998 243.524004,123.508004 242.78,122.732 C242.035997,121.955996 241.460003,121.030005 241.052,119.954 C240.643998,118.877995 240.44,117.696006 240.44,116.408 C240.44,115.119994 240.643998,113.938005 241.052,112.862 C241.460003,111.785995 242.035997,110.858004 242.78,110.078 C243.524004,109.297996 244.415995,108.692002 245.456,108.26 C246.496006,107.827998 247.647994,107.612 248.912,107.612 C250.176007,107.612 251.329995,107.827998 252.374,108.26 C253.418006,108.692002 254.311997,109.297996 255.056,110.078 C255.800004,110.858004 256.375998,111.785995 256.784,112.862 C257.192003,113.938005 257.396,115.119994 257.396,116.408 L257.396,116.408 Z M255.008,116.408 C255.008,115.351995 254.864002,114.404004 254.576,113.564 C254.287999,112.723996 253.880003,112.014003 253.352,111.434 C252.823998,110.853997 252.184004,110.408002 251.432,110.096 C250.679997,109.783998 249.840005,109.628 248.912,109.628 C247.991996,109.628 247.156004,109.783998 246.404,110.096 C245.651997,110.408002 245.010003,110.853997 244.478,111.434 C243.945998,112.014003 243.536002,112.723996 243.248,113.564 C242.959999,114.404004 242.816,115.351995 242.816,116.408 C242.816,117.464005 242.959999,118.409996 243.248,119.246 C243.536002,120.082004 243.945998,120.789997 244.478,121.37 C245.010003,121.950003 245.651997,122.393998 246.404,122.702 C247.156004,123.010002 247.991996,123.164 248.912,123.164 C249.840005,123.164 250.679997,123.010002 251.432,122.702 C252.184004,122.393998 252.823998,121.950003 253.352,121.37 C253.880003,120.789997 254.287999,120.082004 254.576,119.246 C254.864002,118.409996 255.008,117.464005 255.008,116.408 L255.008,116.408 Z M270.472572,119.06 C270.472572,120.020005 270.354573,120.879996 270.118572,121.64 C269.882571,122.400004 269.534574,123.041997 269.074572,123.566 C268.61457,124.090003 268.048575,124.491999 267.376572,124.772 C266.704569,125.052001 265.932576,125.192 265.060572,125.192 C264.284568,125.192 263.476576,125.080001 262.636572,124.856 C262.652572,124.623999 262.672572,124.394001 262.696572,124.166 C262.720572,123.937999 262.744572,123.712001 262.768572,123.488 C262.784572,123.351999 262.834572,123.242 262.918572,123.158 C263.002572,123.074 263.128571,123.032 263.296572,123.032 C263.440573,123.032 263.632571,123.068 263.872572,123.14 C264.112573,123.212 264.43257,123.248 264.832572,123.248 C265.360575,123.248 265.83057,123.168001 266.242572,123.008 C266.654574,122.847999 267.002571,122.600002 267.286572,122.264 C267.570573,121.927998 267.786571,121.498003 267.934572,120.974 C268.082573,120.449997 268.156572,119.828004 268.156572,119.108 L268.156572,107.804 L270.472572,107.804 L270.472572,119.06 Z M288.685143,107.804 L288.685143,109.7 L280.429143,109.7 L280.429143,115.412 L287.113143,115.412 L287.113143,117.236 L280.429143,117.236 L280.429143,123.104 L288.685143,123.104 L288.685143,125 L278.089143,125 L278.089143,107.804 L288.685143,107.804 Z M307.581715,121.448 C307.709716,121.448 307.825714,121.499999 307.929715,121.604 L308.841715,122.6 C308.137711,123.416004 307.28372,124.051998 306.279715,124.508 C305.27571,124.964002 304.065722,125.192 302.649715,125.192 C301.409709,125.192 300.28572,124.978002 299.277715,124.55 C298.26971,124.121998 297.409718,123.522004 296.697715,122.75 C295.985711,121.977996 295.433717,121.052005 295.041715,119.972 C294.649713,118.891995 294.453715,117.704006 294.453715,116.408 C294.453715,115.111994 294.663713,113.924005 295.083715,112.844 C295.503717,111.763995 296.093711,110.836004 296.853715,110.06 C297.613719,109.283996 298.52371,108.682002 299.583715,108.254 C300.64372,107.825998 301.813708,107.612 303.093715,107.612 C304.357721,107.612 305.44771,107.807998 306.363715,108.2 C307.279719,108.592002 308.093711,109.123997 308.805715,109.796 L308.049715,110.864 C307.993715,110.944 307.929715,111.01 307.857715,111.062 C307.785715,111.114 307.681716,111.14 307.545715,111.14 C307.441714,111.14 307.331715,111.102 307.215715,111.026 C307.099714,110.95 306.961716,110.856001 306.801715,110.744 C306.641714,110.631999 306.453716,110.512001 306.237715,110.384 C306.021714,110.255999 305.765716,110.136001 305.469715,110.024 C305.173713,109.911999 304.829717,109.818 304.437715,109.742 C304.045713,109.666 303.593717,109.628 303.081715,109.628 C302.16171,109.628 301.319719,109.785998 300.555715,110.102 C299.791711,110.418002 299.133718,110.867997 298.581715,111.452 C298.029712,112.036003 297.599716,112.747996 297.291715,113.588 C296.983713,114.428004 296.829715,115.367995 296.829715,116.408 C296.829715,117.480005 296.983713,118.435996 297.291715,119.276 C297.599716,120.116004 298.019712,120.825997 298.551715,121.406 C299.083718,121.986003 299.713711,122.427998 300.441715,122.732 C301.169719,123.036002 301.953711,123.188 302.793715,123.188 C303.305717,123.188 303.765713,123.158 304.173715,123.098 C304.581717,123.038 304.959713,122.944001 305.307715,122.816 C305.655717,122.687999 305.979713,122.526001 306.279715,122.33 C306.579716,122.133999 306.881713,121.900001 307.185715,121.628 C307.321716,121.507999 307.453714,121.448 307.581715,121.448 L307.581715,121.448 Z M327.042286,107.804 L327.042286,109.76 L321.486286,109.76 L321.486286,125 L319.158286,125 L319.158286,109.76 L313.578286,109.76 L313.578286,107.804 L327.042286,107.804 Z M349.439429,118.784 C349.55143,118.976001 349.649429,119.177999 349.733429,119.39 C349.81743,119.602001 349.899429,119.815999 349.979429,120.032 C350.05943,119.807999 350.143429,119.594001 350.231429,119.39 C350.31943,119.185999 350.419429,118.980001 350.531429,118.772 L356.351429,108.2 C356.45543,108.015999 356.563429,107.904 356.675429,107.864 C356.78743,107.824 356.947428,107.804 357.155429,107.804 L358.871429,107.804 L358.871429,125 L356.831429,125 L356.831429,112.364 C356.831429,112.195999 356.835429,112.016001 356.843429,111.824 C356.851429,111.631999 356.863429,111.436001 356.879429,111.236 L350.987429,121.988 C350.787428,122.348002 350.507431,122.528 350.147429,122.528 L349.811429,122.528 C349.451427,122.528 349.17143,122.348002 348.971429,121.988 L342.947429,111.2 C342.971429,111.408001 342.989429,111.611999 343.001429,111.812 C343.013429,112.012001 343.019429,112.195999 343.019429,112.364 L343.019429,125 L340.979429,125 L340.979429,107.804 L342.695429,107.804 C342.90343,107.804 343.063429,107.824 343.175429,107.864 C343.28743,107.904 343.395429,108.015999 343.499429,108.2 L349.439429,118.784 Z M380.636001,125 L378.836001,125 C378.628,125 378.460001,124.948001 378.332001,124.844 C378.204,124.739999 378.108001,124.608001 378.044001,124.448 L376.436001,120.296 L368.720001,120.296 L367.112001,124.448 C367.056,124.592001 366.960001,124.719999 366.824001,124.832 C366.688,124.944001 366.520002,125 366.320001,125 L364.520001,125 L371.396001,107.804 L373.760001,107.804 L380.636001,125 Z M369.368001,118.616 L375.788001,118.616 L373.088001,111.62 C372.912,111.187998 372.740002,110.648003 372.572001,110 C372.484,110.328002 372.398001,110.629999 372.314001,110.906 C372.23,111.182001 372.148001,111.423999 372.068001,111.632 L369.368001,118.616 Z M387.436572,107.804 C387.644573,107.804 387.798572,107.83 387.898572,107.882 C387.998573,107.934 388.112572,108.039999 388.240572,108.2 L398.200572,121.16 C398.176572,120.951999 398.160572,120.750001 398.152572,120.554 C398.144572,120.357999 398.140572,120.168001 398.140572,119.984 L398.140572,107.804 L400.180572,107.804 L400.180572,125 L399.004572,125 C398.820571,125 398.666573,124.968 398.542572,124.904 C398.418572,124.84 398.296573,124.732001 398.176572,124.58 L388.228572,111.632 C388.244572,111.832001 388.256572,112.027999 388.264572,112.22 C388.272572,112.412001 388.276572,112.587999 388.276572,112.748 L388.276572,125 L386.236572,125 L386.236572,107.804 L387.436572,107.804 Z M421.957144,125 L420.157144,125 C419.949143,125 419.781144,124.948001 419.653144,124.844 C419.525143,124.739999 419.429144,124.608001 419.365144,124.448 L417.757144,120.296 L410.041144,120.296 L408.433144,124.448 C408.377143,124.592001 408.281144,124.719999 408.145144,124.832 C408.009143,124.944001 407.841145,125 407.641144,125 L405.841144,125 L412.717144,107.804 L415.081144,107.804 L421.957144,125 Z M410.689144,118.616 L417.109144,118.616 L414.409144,111.62 C414.233143,111.187998 414.061144,110.648003 413.893144,110 C413.805143,110.328002 413.719144,110.629999 413.635144,110.906 C413.551143,111.182001 413.469144,111.423999 413.389144,111.632 L410.689144,118.616 Z M434.721715,123.308 C435.185717,123.308 435.611713,123.286 435.999715,123.242 C436.387717,123.198 436.753713,123.132 437.097715,123.044 C437.441717,122.956 437.765714,122.850001 438.069715,122.726 C438.373717,122.601999 438.677714,122.460001 438.981715,122.3 L438.981715,118.508 L436.317715,118.508 C436.165714,118.508 436.043716,118.464 435.951715,118.376 C435.859715,118.288 435.813715,118.180001 435.813715,118.052 L435.813715,116.732 L441.093715,116.732 L441.093715,123.332 C440.661713,123.644002 440.211717,123.915999 439.743715,124.148 C439.275713,124.380001 438.775718,124.573999 438.243715,124.73 C437.711712,124.886001 437.141718,125.002 436.533715,125.078 C435.925712,125.154 435.265719,125.192 434.553715,125.192 C433.305709,125.192 432.16172,124.978002 431.121715,124.55 C430.08171,124.121998 429.185719,123.522004 428.433715,122.75 C427.681711,121.977996 427.095717,121.052005 426.675715,119.972 C426.255713,118.891995 426.045715,117.704006 426.045715,116.408 C426.045715,115.095993 426.251713,113.900005 426.663715,112.82 C427.075717,111.739995 427.663711,110.814004 428.427715,110.042 C429.191719,109.269996 430.11571,108.672002 431.199715,108.248 C432.283721,107.823998 433.497708,107.612 434.841715,107.612 C435.521719,107.612 436.153712,107.662 436.737715,107.762 C437.321718,107.862 437.863713,108.005999 438.363715,108.194 C438.863718,108.382001 439.325713,108.609999 439.749715,108.878 C440.173717,109.146001 440.569713,109.447998 440.937715,109.784 L440.277715,110.84 C440.141714,111.056001 439.965716,111.164 439.749715,111.164 C439.621714,111.164 439.481716,111.12 439.329715,111.032 C439.129714,110.919999 438.905716,110.784001 438.657715,110.624 C438.409714,110.463999 438.107717,110.310001 437.751715,110.162 C437.395713,110.013999 436.975718,109.888001 436.491715,109.784 C436.007713,109.679999 435.433718,109.628 434.769715,109.628 C433.80171,109.628 432.925719,109.785998 432.141715,110.102 C431.357711,110.418002 430.689718,110.869997 430.137715,111.458 C429.585712,112.046003 429.161717,112.757996 428.865715,113.594 C428.569714,114.430004 428.421715,115.367995 428.421715,116.408 C428.421715,117.496005 428.575714,118.465996 428.883715,119.318 C429.191717,120.170004 429.625712,120.891997 430.185715,121.484 C430.745718,122.076003 431.409711,122.527998 432.177715,122.84 C432.945719,123.152002 433.79371,123.308 434.721715,123.308 L434.721715,123.308 Z M458.694287,107.804 L458.694287,109.7 L450.438287,109.7 L450.438287,115.412 L457.122287,115.412 L457.122287,117.236 L450.438287,117.236 L450.438287,123.104 L458.694287,123.104 L458.694287,125 L448.098287,125 L448.098287,107.804 L458.694287,107.804 Z M473.930858,118.784 C474.042859,118.976001 474.140858,119.177999 474.224858,119.39 C474.308858,119.602001 474.390858,119.815999 474.470858,120.032 C474.550858,119.807999 474.634858,119.594001 474.722858,119.39 C474.810858,119.185999 474.910857,118.980001 475.022858,118.772 L480.842858,108.2 C480.946859,108.015999 481.054857,107.904 481.166858,107.864 C481.278859,107.824 481.438857,107.804 481.646858,107.804 L483.362858,107.804 L483.362858,125 L481.322858,125 L481.322858,112.364 C481.322858,112.195999 481.326858,112.016001 481.334858,111.824 C481.342858,111.631999 481.354858,111.436001 481.370858,111.236 L475.478858,121.988 C475.278857,122.348002 474.99886,122.528 474.638858,122.528 L474.302858,122.528 C473.942856,122.528 473.662859,122.348002 473.462858,121.988 L467.438858,111.2 C467.462858,111.408001 467.480858,111.611999 467.492858,111.812 C467.504858,112.012001 467.510858,112.195999 467.510858,112.364 L467.510858,125 L465.470858,125 L465.470858,107.804 L467.186858,107.804 C467.394859,107.804 467.554857,107.824 467.666858,107.864 C467.778859,107.904 467.886858,108.015999 467.990858,108.2 L473.930858,118.784 Z M501.575429,107.804 L501.575429,109.7 L493.319429,109.7 L493.319429,115.412 L500.003429,115.412 L500.003429,117.236 L493.319429,117.236 L493.319429,123.104 L501.575429,123.104 L501.575429,125 L490.979429,125 L490.979429,107.804 L501.575429,107.804 Z M509.552001,107.804 C509.760002,107.804 509.914,107.83 510.014001,107.882 C510.114001,107.934 510.228,108.039999 510.356001,108.2 L520.316001,121.16 C520.292001,120.951999 520.276001,120.750001 520.268001,120.554 C520.260001,120.357999 520.256001,120.168001 520.256001,119.984 L520.256001,107.804 L522.296001,107.804 L522.296001,125 L521.120001,125 C520.936,125 520.782002,124.968 520.658001,124.904 C520.534,124.84 520.412002,124.732001 520.292001,124.58 L510.344001,111.632 C510.360001,111.832001 510.372001,112.027999 510.380001,112.22 C510.388001,112.412001 510.392001,112.587999 510.392001,112.748 L510.392001,125 L508.352001,125 L508.352001,107.804 L509.552001,107.804 Z M541.636572,107.804 L541.636572,109.76 L536.080572,109.76 L536.080572,125 L533.752572,125 L533.752572,109.76 L528.172572,109.76 L528.172572,107.804 L541.636572,107.804 Z" id="DATA-DRIVEN-PROJECT-" sketch:type="MSShapeGroup"></path>
    </g>
</svg>